:FULLY-SPECIFIED
:FORCE-ALL-JOINTS-BE-3DOF
:DEGREES
408
root 3.88331 15.9164 -11.6526 6.15722 -30.2758 -3.43446
lfemur -24.7175 10.1262 -2.21848
ltibia 54.6064 0 0
lfoot -15.8022 9.88888 0
ltoes -5.39582 0 0
rfemur -35.6409 -0.43536 6.91425
rtibia 46.1902 0 0
rfoot 3.01973 -0.483472 0
rtoes -12.2926 0 0
lowerback 5.42606 2.07919 2.79962
upperback 2.11987 2.91601 -0.633568
thorax -0.642672 1.45087 -2.46193
lowerneck -6.34971 3.09648 8.30419
upperneck 3.23655 3.50599 -1.4425
head 2.48531 1.82367 -1.75772
lclavicle -2.64665e-14 1.18208e-14 0
lhumerus -43.9327 -22.7353 96.5332
lradius 49.46 0 0
lwrist 13.9959 0 0
lhand -19.2057 0.956246 0
lfingers 7.12502 0 0
lthumb 7.1069 30.7942 0
rclavicle -2.64665e-14 1.18208e-14 0
rhumerus -45.4936 2.50392 -87.9803
rradius 69.8478 0 0
rwrist 10.443 0 0
rhand -36.1439 -25.261 0
rfingers 7.12502 0 0
rthumb -9.24138 -775.147 0
409
root 3.83164 15.9114 -11.5261 6.02263 -30.5427 -3.57638
lfemur -25.0071 10.0747 -2.24952
ltibia 54.6463 0 0
lfoot -16.2628 9.64164 0
ltoes -5.62717 0 0
rfemur -35.6033 -0.135118 6.66743
rtibia 46.1916 0 0
rfoot 3.20806 -0.352919 0
rtoes -12.4538 0 0
lowerback 5.51976 2.11973 2.83341
upperback 2.1195 2.97198 -0.652539
thorax -0.693115 1.47903 -2.50264
lowerneck -6.34848 3.20205 8.41109
upperneck 3.29171 3.64062 -1.53563
head 2.50329 1.89048 -1.80174
lclavicle -2.6378e-14 1.16631e-14 0
lhumerus -43.8962 -22.6994 96.431
lradius 49.3864 0 0
lwrist 13.9025 0 0
lhand -19.4223 0.824516 0
lfingers 7.12502 0 0
lthumb 6.89832 30.6777 0
rclavicle -2.6378e-14 1.16631e-14 0
rhumerus -45.6505 2.46122 -87.9898
rradius 69.7437 0 0
rwrist 10.5493 0 0
rhand -35.8661 -25.0488 0
rfingers 7.12502 0 0
rthumb -8.97358 -774.943 0
410
root 3.78181 15.9067 -11.4013 5.88117 -30.7683 -3.72401
lfemur -25.289 10.0164 -2.28544
ltibia 54.6829 0 0
lfoot -16.7131 9.39625 0
ltoes -5.84571 0 0
rfemur -35.5733 0.158832 6.42798
rtibia 46.2003 0 0
rfoot 3.3926 -0.222503 0
rtoes -12.6114 0 0
lowerback 5.61105 2.15845 2.86506
upperback 2.11865 3.0254 -0.670411
thorax -0.742823 1.50593 -2.54088
lowerneck -6.34807 3.30099 8.51208
upperneck 3.34702 3.76675 -1.62524
head 2.52134 1.95307 -1.84403
lclavicle -2.62885e-14 1.15066e-14 0
lhumerus -43.8622 -22.6675 96.3373
lradius 49.3168 0 0
lwrist 13.8089 0 0
lhand -19.6249 0.696388 0
lfingers 7.12502 0 0
lthumb 6.70309 30.5636 0
rclavicle -2.62885e-14 1.15066e-14 0
rhumerus -45.8014 2.43054 -88.0011
rradius 69.6491 0 0
rwrist 10.6566 0 0
rhand -35.5855 -24.8395 0
rfingers 7.12502 0 0
rthumb -8.70315 -774.743 0
411
root 3.7339 15.9023 -11.2785 5.73267 -30.9511 -3.8775
lfemur -25.5628 9.95102 -2.32639
ltibia 54.716 0 0
lfoot -17.1528 9.15285 0
ltoes -6.05096 0 0
rfemur -35.5512 0.446196 6.19622
rtibia 46.2167 0 0
rfoot 3.57315 -0.0922632 0
rtoes -12.7655 0 0
lowerback 5.6998 2.19526 2.89451
upperback 2.1173 3.07619 -0.687146
thorax -0.791756 1.53151 -2.57656
lowerneck -6.34851 3.39305 8.60693
upperneck 3.40247 3.88407 -1.71121
head 2.53945 2.01129 -1.88454
lclavicle -2.61985e-14 1.13515e-14 0
lhumerus -43.8306 -22.6398 96.2524
lradius 49.2514 0 0
lwrist 13.7152 0 0
lhand -19.8132 0.572018 0
lfingers 7.12502 0 0
lthumb 6.5217 30.4519 0
rclavicle -2.61985e-14 1.13515e-14 0
rhumerus -45.946 2.41227 -88.0142
rradius 69.5643 0 0
rwrist 10.7649 0 0
rhand -35.3022 -24.6335 0
rfingers 7.12502 0 0
rthumb -8.43012 -774.544 0
412
root 3.68798 15.8983 -11.1577 5.57695 -31.0897 -4.03698
lfemur -25.8281 9.87836 -2.37249
ltibia 54.7456 0 0
lfoot -17.5812 8.91155 0
ltoes -6.24241 0 0
rfemur -35.5372 0.726681 5.97244
rtibia 46.2408 0 0
rfoot 3.74954 0.0377604 0
rtoes -12.9158 0 0
lowerback 5.78593 2.2301 2.92167
upperback 2.11543 3.12423 -0.702701
thorax -0.839876 1.55572 -2.60959
lowerneck -6.34981 3.47801 8.69543
upperneck 3.45804 3.99227 -1.7934
head 2.55761 2.065 -1.92319
lclavicle -2.6108e-14 1.1198e-14 0
lhumerus -43.8017 -22.6165 96.1767
lradius 49.1903 0 0
lwrist 13.6212 0 0
lhand -19.9865 0.451559 0
lfingers 7.12502 0 0
lthumb 6.35462 30.3427 0
rclavicle -2.6108e-14 1.1198e-14 0
rhumerus -46.0842 2.4068 -88.0291
rradius 69.4897 0 0
rwrist 10.8743 0 0
rhand -35.0162 -24.4308 0
rfingers 7.12502 0 0
rthumb -8.15448 -774.349 0
413
root 3.64413 15.8945 -11.0391 5.41385 -31.1829 -4.20258
lfemur -26.0847 9.79824 -2.42389
ltibia 54.7716 0 0
lfoot -17.9981 8.67248 0
ltoes -6.41956 0 0
rfemur -35.5315 0.999991 5.75697
rtibia 46.2729 0 0
rfoot 3.92158 0.167528 0
rtoes -13.0621 0 0
lowerback 5.86931 2.2629 2.94647
upperback 2.11303 3.16943 -0.717036
thorax -0.887144 1.57853 -2.63987
lowerneck -6.35201 3.55561 8.77737
upperneck 3.51372 4.09105 -1.87165
head 2.57583 2.11403 -1.95991
lclavicle -2.60171e-14 1.10463e-14 0
lhumerus -43.7754 -22.5976 96.1103
lradius 49.1336 0 0
lwrist 13.5272 0 0
lhand -20.1445 0.335165 0
lfingers 7.12502 0 0
lthumb 6.20233 30.2362 0
rclavicle -2.60171e-14 1.10463e-14 0
rhumerus -46.2156 2.41451 -88.046
rradius 69.4254 0 0
rwrist 10.9847 0 0
rhand -34.7276 -24.2318 0
rfingers 7.12502 0 0
rthumb -7.87627 -774.156 0
414
root 3.60242 15.8911 -10.9227 5.24318 -31.2293 -4.37444
lfemur -26.3321 9.71046 -2.48073
ltibia 54.7938 0 0
lfoot -18.4028 8.43577 0
ltoes -6.58192 0 0
rfemur -35.5344 1.26583 5.55012
rtibia 46.3133 0 0
rfoot 4.08907 0.296999 0
rtoes -13.2043 0 0
lowerback 5.94986 2.29359 2.96882
upperback 2.11009 3.2117 -0.730111
thorax -0.933521 1.59987 -2.66732
lowerneck -6.35513 3.62562 8.85251
upperneck 3.56951 4.18011 -1.94585
head 2.59409 2.15824 -1.99464
lclavicle -2.59261e-14 1.08965e-14 0
lhumerus -43.7518 -22.5833 96.0537
lradius 49.0814 0 0
lwrist 13.433 0 0
lhand -20.2866 0.222991 0
lfingers 7.12502 0 0
lthumb 6.06532 30.1325 0
rclavicle -2.59261e-14 1.08965e-14 0
rhumerus -46.34 2.43578 -88.0648
rradius 69.372 0 0
rwrist 11.0961 0 0
rhand -34.4362 -24.0365 0
rfingers 7.12502 0 0
rthumb -7.5955 -773.966 0
415
root 3.56292 15.8881 -10.8086 5.06479 -31.2274 -4.55268
lfemur -26.5702 9.61481 -2.54315
ltibia 54.8121 0 0
lfoot -18.7949 8.20154 0
ltoes -6.72897 0 0
rfemur -35.5462 1.52392 5.3522
rtibia 46.3621 0 0
rfoot 4.25185 0.426135 0
rtoes -13.3423 0 0
lowerback 6.02746 2.3221 2.98866
upperback 2.10659 3.25094 -0.741884
thorax -0.97897 1.61971 -2.69185
lowerneck -6.35919 3.6878 8.92064
upperneck 3.62538 4.25913 -2.01584
head 2.61241 2.19747 -2.02731
lclavicle -2.58352e-14 1.07487e-14 0
lhumerus -43.7311 -22.5738 96.0071
lradius 49.034 0 0
lwrist 13.3387 0 0
lhand -20.4123 0.11519 0
lfingers 7.12502 0 0
lthumb 5.94406 30.0317 0
rclavicle -2.58352e-14 1.07487e-14 0
rhumerus -46.4572 2.471 -88.0857
rradius 69.3296 0 0
rwrist 11.2085 0 0
rhand -34.1423 -23.8452 0
rfingers 7.12502 0 0
rthumb -7.31218 -773.779 0
416
root 3.52571 15.8854 -10.6969 4.87849 -31.1759 -4.73746
lfemur -26.7984 9.51111 -2.61128
ltibia 54.8265 0 0
lfoot -19.174 7.96992 0
ltoes -6.86023 0 0
rfemur -35.5671 1.77395 5.16352
rtibia 46.4196 0 0
rfoot 4.40972 0.554895 0
rtoes -13.4758 0 0
lowerback 6.10202 2.34836 3.0059
upperback 2.10251 3.28705 -0.752314
thorax -1.02345 1.63799 -2.71336
lowerneck -6.36424 3.74191 8.98155
upperneck 3.68133 4.32781 -2.08149
head 2.63077 2.23158 -2.05785
lclavicle -2.57445e-14 1.06032e-14 0
lhumerus -43.7134 -22.5691 95.9708
lradius 48.9915 0 0
lwrist 13.2444 0 0
lhand -20.5212 0.0119169 0
lfingers 7.12502 0 0
lthumb 5.83904 29.9339 0
rclavicle -2.57445e-14 1.06032e-14 0
rhumerus -46.5669 2.52056 -88.1087
rradius 69.2987 0 0
rwrist 11.322 0 0
rhand -33.8457 -23.6581 0
rfingers 7.12502 0 0
rthumb -7.02633 -773.595 0
417
root 3.49085 15.8831 -10.5877 4.68411 -31.0735 -4.92889
lfemur -27.0166 9.39915 -2.68528
ltibia 54.8368 0 0
lfoot -19.5395 7.74103 0
ltoes -6.97518 0 0
rfemur -35.5972 2.01562 4.9844
rtibia 46.4861 0 0
rfoot 4.56249 0.683239 0
rtoes -13.6047 0 0
lowerback 6.17342 2.3723 3.02047
upperback 2.09785 3.31994 -0.761362
thorax -1.06692 1.65467 -2.73177
lowerneck -6.37028 3.7877 9.03501
upperneck 3.73735 4.38584 -2.14266
head 2.64916 2.26041 -2.0862
lclavicle -2.56541e-14 1.04602e-14 0
lhumerus -43.6986 -22.5695 95.9452
lradius 48.954 0 0
lwrist 13.15 0 0
lhand -20.6126 -0.0866745 0
lfingers 7.12502 0 0
lthumb 5.75074 29.8391 0
rclavicle -2.56541e-14 1.04602e-14 0
rhumerus -46.669 2.58483 -88.1338
rradius 69.2795 0 0
rwrist 11.4365 0 0
rhand -33.5465 -23.4753 0
rfingers 7.12502 0 0
rthumb -6.73797 -773.415 0
418
root 3.45843 15.8812 -10.4811 4.48148 -30.9187 -5.12711
lfemur -27.2243 9.27874 -2.76526
ltibia 54.8429 0 0
lfoot -19.8911 7.515 0
ltoes -7.07334 0 0
rfemur -35.637 2.24866 4.81514
rtibia 46.5616 0 0
rfoot 4.70999 0.811128 0
rtoes -13.7288 0 0
lowerback 6.24157 2.39385 3.0323
upperback 2.09258 3.3495 -0.768986
thorax -1.10935 1.66969 -2.74699
lowerneck -6.37734 3.82495 9.0808
upperneck 3.79342 4.43292 -2.19922
head 2.6676 2.2838 -2.11228
lclavicle -2.55643e-14 1.03198e-14 0
lhumerus -43.687 -22.575 95.9304
lradius 48.9216 0 0
lwrist 13.0556 0 0
lhand -20.6861 -0.18043 0
lfingers 7.12502 0 0
lthumb 5.67963 29.7476 0
rclavicle -2.55643e-14 1.03198e-14 0
rhumerus -46.7632 2.66421 -88.1611
rradius 69.2724 0 0
rwrist 11.5521 0 0
rhand -33.2447 -23.297 0
rfingers 7.12502 0 0
rthumb -6.4471 -773.238 0
419
root 3.42852 15.8797 -10.3773 4.27043 -30.7102 -5.33226
lfemur -27.4213 9.14967 -2.85139
ltibia 54.8447 0 0
lfoot -20.2282 7.29196 0
ltoes -7.15419 0 0
rfemur -35.6866 2.47276 4.65607
rtibia 46.6466 0 0
rfoot 4.85202 0.938522 0
rtoes -13.8481 0 0
lowerback 6.30635 2.41294 3.04129
upperback 2.0867 3.37565 -0.775146
thorax -1.1507 1.68301 -2.75891
lowerneck -6.38546 3.85341 9.11872
upperneck 3.84953 4.46873 -2.25101
head 2.68607 2.30161 -2.13603
lclavicle -2.54753e-14 1.01821e-14 0
lhumerus -43.6786 -22.5857 95.9268
lradius 48.8946 0 0
lwrist 12.9611 0 0
lhand -20.7413 -0.269196 0
lfingers 7.12502 0 0
lthumb 5.62619 29.6594 0
rclavicle -2.54753e-14 1.01821e-14 0
rhumerus -46.8492 2.75908 -88.1907
rradius 69.2778 0 0
rwrist 11.6686 0 0
rhand -32.9403 -23.1235 0
rfingers 7.12502 0 0
rthumb -6.15375 -773.065 0
420
root 3.40119 15.8786 -10.2762 4.05078 -30.4467 -5.54448
lfemur -27.6071 9.01176 -2.94378
ltibia 54.8422 0 0
lfoot -20.5504 7.07202 0
ltoes -7.21724 0 0
rfemur -35.7462 2.68763 4.50749
rtibia 46.7411 0 0
rfoot 4.98841 1.06538 0
rtoes -13.9622 0 0
lowerback 6.36767 2.42951 3.04738
upperback 2.08018 3.39828 -0.7798
thorax -1.19092 1.69459 -2.76746
lowerneck -6.39466 3.87284 9.14853
upperneck 3.90567 4.49297 -2.29792
head 2.70456 2.31368 -2.15739
lclavicle -2.53871e-14 1.00474e-14 0
lhumerus -43.6734 -22.6019 95.9348
lradius 48.8731 0 0
lwrist 12.8667 0 0
lhand -20.7776 -0.352817 0
lfingers 7.12502 0 0
lthumb 5.59092 29.5746 0
rclavicle -2.53871e-14 1.00474e-14 0
rhumerus -46.9268 2.86981 -88.2226
rradius 69.2958 0 0
rwrist 11.7863 0 0
rhand -32.6333 -22.9548 0
rfingers 7.12502 0 0
rthumb -5.85793 -772.896 0
421
root 3.37652 15.8779 -10.1781 3.82237 -30.1267 -5.76389
lfemur -27.7815 8.86479 -3.0426
ltibia 54.8351 0 0
lfoot -20.8572 6.85531 0
ltoes -7.26198 0 0
rfemur -35.8162 2.89298 4.36971
rtibia 46.8455 0 0
rfoot 5.11896 1.19167 0
rtoes -14.071 0 0
lowerback 6.42541 2.44347 3.05049
upperback 2.07302 3.41729 -0.782908
thorax -1.22998 1.70436 -2.77255
lowerneck -6.40496 3.883 9.17003
upperneck 3.96182 4.50534 -2.33979
head 2.72308 2.31986 -2.17628
lclavicle -2.53e-14 9.91587e-15 0
lhumerus -43.6716 -22.6237 95.9545
lradius 48.8571 0 0
lwrist 12.7723 0 0
lhand -20.7945 -0.43114 0
lfingers 7.12502 0 0
lthumb 5.57428 29.4934 0
rclavicle -2.53e-14 9.91587e-15 0
rhumerus -46.9958 2.99681 -88.2568
rradius 69.3269 0 0
rwrist 11.9049 0 0
rhand -32.3238 -22.7913 0
rfingers 7.12502 0 0
rthumb -5.55966 -772.731 0
